<?xml version="1.0" encoding="UTF-8" standalone="no"?>
<!-- Created with Inkscape (http://www.inkscape.org/) -->
<svg
   xmlns:dc="http://purl.org/dc/elements/1.1/"
   xmlns:cc="http://web.resource.org/cc/"
   xmlns:rdf="http://www.w3.org/1999/02/22-rdf-syntax-ns#"
   xmlns:svg="http://www.w3.org/2000/svg"
   xmlns="http://www.w3.org/2000/svg"
   xmlns:sodipodi="http://sodipodi.sourceforge.net/DTD/sodipodi-0.dtd"
   xmlns:inkscape="http://www.inkscape.org/namespaces/inkscape"
   height="745"
   width="745"
   id="svg2"
   sodipodi:version="0.32"
   inkscape:version="0.45.1"
   sodipodi:docbase="H:\Documents and Settings\TaZz\Moje dokumenty\Moje obrazy"
   sodipodi:docname="mulogo.svg"
   inkscape:output_extension="org.inkscape.output.svg.inkscape"
   version="1.0">
  <defs
     id="defs4" />
  <sodipodi:namedview
     id="base"
     pagecolor="#ffffff"
     bordercolor="#666666"
     borderopacity="1.0"
     inkscape:pageopacity="0.0"
     inkscape:pageshadow="2"
     inkscape:cx="372.04724"
     inkscape:cy="305.21266"
     inkscape:zoom="0.36204266"
     inkscape:document-units="px"
     inkscape:current-layer="layer1"
     inkscape:window-width="836"
     inkscape:window-height="579"
     inkscape:window-x="22"
     inkscape:window-y="22"
     width="745px"
     height="745px" />
  <metadata
     id="metadata7">
    <rdf:RDF>
      <cc:Work
         rdf:about="">
        <dc:format>image/svg+xml</dc:format>
        <dc:type
           rdf:resource="http://purl.org/dc/dcmitype/StillImage" />
      </cc:Work>
    </rdf:RDF>
  </metadata>
  <g
     inkscape:groupmode="layer"
     inkscape:label="Warstwa 1"
     id="layer1">
    <path
       style="fill:#000000"
       d="M 370.7786,743.56287 C 369.1393,738.84797 334.0268,636.46057 330.4641,626.00697 C 328.0937,619.05127 325.4349,612.51727 324.5559,611.48687 C 323.6769,610.45647 320.8987,609.28417 318.3821,608.88167 C 309.9643,607.53567 288.0956,600.99187 278.9689,597.08817 C 233.84067,577.78547 197.05187,547.03257 169.30477,505.41637 C 155.86757,485.26277 138.86177,444.97397 136.09777,426.74507 C 135.60587,423.50097 134.48777,421.21917 132.87067,420.15957 C 130.65797,418.70987 117.97477,414.21767 55.185666,392.64507 C -0.72613371,373.43537 0.00046628579,373.70037 0.00046628579,372.51727 C 0.00046628579,371.47017 4.1872663,369.91167 41.389366,357.11067 C 117.53407,330.90967 130.64847,326.29257 132.61657,324.99237 C 134.04077,324.05147 135.79737,319.42077 137.93717,310.96647 C 143.88377,287.47007 154.60737,262.75887 168.20647,241.21437 C 186.00507,213.01657 215.91527,183.45417 244.72437,165.58617 C 267.5072,151.45587 297.4988,139.45797 318.3883,136.11757 C 321.4737,135.62427 323.8052,134.45097 324.8407,132.87057 C 326.2904,130.65797 330.7826,117.97477 352.3552,55.185566 C 371.5649,-0.72623352 371.2999,0.00046647508 372.4829,0.00046647508 C 373.5301,0.00046647508 375.0886,4.1871665 387.8896,41.389266 C 414.0612,117.44907 418.706,130.64587 419.9863,132.58407 C 420.9404,134.02847 426.7166,136.05387 438.611,139.11477 C 493.3195,153.19347 541.7719,188.70427 575.6954,239.58397 C 589.1326,259.73757 606.1384,300.02627 608.9023,318.25517 C 609.3942,321.49937 610.5124,323.78107 612.1295,324.84067 C 614.3422,326.29047 627.0254,330.78267 689.8145,352.35517 C 745.7262,371.56497 744.9996,371.29997 744.9996,372.48297 C 744.9996,373.53017 740.8128,375.08867 703.6108,387.88967 C 627.466,414.09057 614.3516,418.70777 612.3836,420.00787 C 610.9594,420.94877 609.2027,425.57947 607.0631,434.03387 C 601.1163,457.53017 590.3928,482.24137 576.7937,503.78597 C 558.9976,531.97967 529.0845,561.54637 500.2854,579.40817 C 479.2811,592.43547 461.9596,599.87167 438.8089,605.80027 C 429.4349,608.20087 421.0984,610.88387 420.2835,611.76267 C 419.4686,612.64137 414.391,626.29437 409,642.10257 C 401.1702,665.06207 376.438,737.21817 374.2235,743.56287 C 373.9477,744.35327 373.1721,744.99997 372.5001,744.99997 C 371.8281,744.99997 371.0534,744.35327 370.7786,743.56287 z M 311.5424,573.40857 C 311.5291,572.61817 306.1346,555.93327 299.5546,536.33107 L 287.591,500.69067 L 282.0495,496.09187 C 272.2408,487.95197 258.6014,474.46627 251.80357,466.18697 L 245.18527,458.12617 L 209.10707,445.75997 C 189.26407,438.95857 172.38217,433.40277 171.59177,433.41377 C 169.42027,433.44397 169.69507,434.52967 175.88497,450.37827 C 184.55137,472.56777 194.94877,489.67627 212.74957,511.03787 C 234.73857,537.42547 267.1585,559.51107 302.369,572.08997 C 311.1575,575.22967 311.574,575.28957 311.5424,573.40857 z M 450.5115,569.11427 C 504.9362,547.65907 548.2215,504.12357 569.6073,449.32987 C 572.4883,441.94837 574.8455,435.29337 574.8455,434.54087 C 574.8455,432.35597 570.7429,433.52227 534.6064,445.98047 L 500.6905,457.67317 L 496.0918,463.03277 C 486.5328,474.17327 470.9028,489.74937 465.0285,493.98887 C 461.6735,496.41017 458.3637,499.58417 457.6734,501.04217 C 455.9233,504.73867 433.4337,572.04747 433.4337,573.58897 C 433.4337,575.61397 435.1942,575.15267 450.5115,569.11427 z M 402.4653,500.28797 C 443.0547,490.89767 475.944,463.79447 492.2552,426.29457 C 507.2409,391.84187 507.2587,353.20377 492.3046,318.82047 C 470.6181,268.95737 421.4143,239.17087 365.0271,241.77037 C 315.785,244.04047 272.2454,273.87367 252.74497,318.70567 C 237.75927,353.15837 237.74147,391.79657 252.69547,426.17977 C 269.9114,465.76357 305.2695,493.42897 349.3324,501.79177 C 361.6024,504.12047 389.2859,503.33697 402.4653,500.28797 z M 355.2547,480.37147 C 345.2746,478.94857 329.1069,473.43267 319.7486,468.25797 C 293.0405,453.48967 274.8298,429.87847 266.5206,399.24487 C 263.3147,387.42567 262.9858,359.83577 265.9106,348.08377 C 274.0967,315.19287 295.2131,288.39067 323.6383,274.81237 C 363.3904,255.82337 408.2604,260.89827 442.3237,288.23587 C 459.4109,301.94927 472.0525,322.06047 478.4796,345.75537 C 481.6855,357.57457 482.0144,385.16447 479.0895,396.91647 C 475.8396,409.97447 470.5135,422.24347 463.4404,432.96527 C 439.9589,468.55987 398.8267,486.58377 355.2547,480.37147 z M 210.39377,299.01977 L 244.30957,287.32707 L 248.90837,281.96747 C 258.4343,270.86567 274.0898,255.25597 279.9556,251.01137 C 283.3017,248.59007 286.7627,245.05697 287.6468,243.15997 C 290.9974,235.97027 312.0117,171.36627 311.2481,170.60267 C 309.8176,169.17217 281.7949,180.68967 269.2149,187.87857 C 232.76647,208.70727 205.42627,236.65127 185.31977,273.62677 C 180.73027,282.06687 170.15457,307.75257 170.15457,310.45937 C 170.15457,312.64437 174.25727,311.47797 210.39377,299.01977 z M 574.8455,310.43017 C 574.8455,306.93887 562.3685,278.20087 556.371,267.87827 C 536.5487,233.76127 511.2163,208.43017 477.1219,188.63357 C 466.3477,182.37757 438.2034,170.15467 434.5728,170.15467 C 432.4117,170.15467 433.3991,173.66847 445.8802,210.39377 L 457.4065,244.30967 L 462.9446,248.90847 C 472.91,257.18367 485.3379,269.43977 492.6726,278.22547 L 499.8711,286.84817 L 535.3463,299.13997 C 570.7375,311.40257 574.8455,312.57677 574.8455,310.43017 z M 107.62537,635.98787 C 107.09727,635.13327 118.58437,610.71517 145.71837,555.01357 C 151.80197,542.52497 157.41347,532.30717 158.18847,532.30717 C 158.96347,532.30717 162.29757,535.79937 165.59757,540.06757 C 172.65647,549.19737 198.08417,574.59927 206.68967,581.11777 C 209.99157,583.61897 212.69317,586.27147 212.69317,587.01207 C 212.69317,587.75277 210.10107,589.47387 206.93307,590.83677 C 203.76507,592.19957 181.90657,602.41237 158.35867,613.53187 C 107.72997,637.43897 108.35207,637.16367 107.62537,635.98787 z M 621.9828,630.15167 C 614.0787,626.47517 592.6082,616.35807 574.2707,607.66937 C 555.9331,598.98057 538.9896,591.08877 536.6183,590.13197 C 534.2471,589.17517 532.309,587.80177 532.3113,587.08007 C 532.3137,586.35827 535.5472,583.18097 539.4968,580.01927 C 551.0253,570.79097 567.5057,554.42087 576.8728,542.89337 C 581.6481,537.01657 586.2513,532.35987 587.102,532.54517 C 587.9528,532.73037 594.5235,545.03997 601.7035,559.89967 C 608.8837,574.75947 618.7764,595.19527 623.6875,605.31247 C 632.9955,624.48787 638.0785,635.46357 638.0785,636.38687 C 638.0785,637.48187 636.0651,636.70197 621.9828,630.15167 z M 154.76637,208.95667 C 153.87377,206.90157 148.23987,195.13167 142.24647,182.80117 C 108.17687,112.70837 106.53917,109.22027 107.32867,108.43077 C 107.92207,107.83737 122.49467,114.47517 169.57977,136.78637 C 188.54967,145.77517 206.01057,153.91227 208.38177,154.86877 C 210.75307,155.82537 212.69117,157.19857 212.68887,157.92027 C 212.68647,158.64207 209.45297,161.81937 205.50327,164.98097 C 193.99097,174.19637 177.49907,190.57387 168.16757,202.05757 C 163.41427,207.90717 158.81967,212.69317 157.95717,212.69317 C 157.09477,212.69317 155.65897,211.01177 154.76637,208.95667 z M 579.4026,204.93277 C 572.3437,195.80297 546.916,170.40107 538.3105,163.88247 C 535.0085,161.38137 532.307,158.74377 532.307,158.02127 C 532.307,157.29867 534.5058,155.74057 537.1932,154.55867 C 539.8806,153.37677 563.2486,142.45667 589.122,130.29187 C 614.9955,118.12697 636.5795,108.43037 637.0866,108.74377 C 638.1572,109.40547 636.4942,113.18807 621.4601,144.28657 C 593.8163,201.46817 588.1309,212.69317 586.8117,212.69317 C 586.0367,212.69317 582.7026,209.20097 579.4026,204.93277 z "
       id="path2187" />
  </g>
</svg>
